HIERARCHY
ROOT Elbow
{
	OFFSET	0.00	0.00	0.00
	CHANNELS 6 Xposition Yposition Zposition Zrotation Xrotation Yrotation
	JOINT L_Wrist
	{
		OFFSET	 0.208349	 0.000000	 0.000000
		CHANNELS 3 Zrotation Xrotation Yrotation
		JOINT L_index_Proximal
		{
			OFFSET	 0.093499	 0.010637	-0.002083
			CHANNELS 3 Zrotation Xrotation Yrotation
			JOINT L_index_b
			{
				OFFSET	 0.033153	 0.000000	 0.000000
				CHANNELS 3 Zrotation Xrotation Yrotation
				JOINT L_index_c
				{
					OFFSET	 0.018651	 0.000000	 0.000000
					CHANNELS 3 Zrotation Xrotation Yrotation
					End Site
					{
						OFFSET	 0.018651	 0.000000	 0.000000
					}
				}
			}
		}
		JOINT L_middle_Proximal
		{
			OFFSET	 0.090632	-0.006115	-0.003750
			CHANNELS 3 Zrotation Xrotation Yrotation
			JOINT L_middle_b
			{
				OFFSET	 0.037194	 0.000000	 0.000000
				CHANNELS 3 Zrotation Xrotation Yrotation
				JOINT L_middle_c
				{
					OFFSET	 0.021943	 0.000000	 0.000000
					CHANNELS 3 Zrotation Xrotation Yrotation
					End Site
					{
						OFFSET	 0.021943	 0.000000	 0.000000
					}
				}
			}
		}
		JOINT L_pinky_Proximal
		{
			OFFSET	 0.074015	-0.035449	-0.000417
			CHANNELS 3 Zrotation Xrotation Yrotation
			JOINT L_pinky_b
			{
				OFFSET	 0.027285	 0.000000	 0.000000
				CHANNELS 3 Zrotation Xrotation Yrotation
				JOINT L_pinky_c
				{
					OFFSET	 0.015093	 0.000000	 0.000000
					CHANNELS 3 Zrotation Xrotation Yrotation
					End Site
					{
						OFFSET	 0.015093	 0.000000	 0.000000
					}
				}
			}
		}
		JOINT L_ring_Proximal
		{
			OFFSET	 0.082801	-0.021859	-0.003750
			CHANNELS 3 Zrotation Xrotation Yrotation
			JOINT L_ring_b
			{
				OFFSET	 0.034478	 0.000000	 0.000000
				CHANNELS 3 Zrotation Xrotation Yrotation
				JOINT L_ring_c
				{
					OFFSET	 0.021377	 0.000000	 0.000000
					CHANNELS 3 Zrotation Xrotation Yrotation
					End Site
					{
						OFFSET	 0.021377	 0.000000	 0.000000
					}
				}
			}
		}
		JOINT L_thumb_Proximal
		{
			OFFSET	 0.030306	 0.018528	 0.004584
			CHANNELS 3 Zrotation Xrotation Yrotation
			JOINT L_thumb_a
			{
				OFFSET	 0.038520	 0.000000	 0.000000
				CHANNELS 3 Zrotation Xrotation Yrotation
				JOINT L_thumb_b
				{
					OFFSET	 0.026310	 0.000000	 0.000000
					CHANNELS 3 Zrotation Xrotation Yrotation
					End Site
					{
						OFFSET	 0.026310	 0.000000	 0.000000
					}
				}
			}
		}
	}
}
MOTION
Frames:    19
Frame Time: 0.01666667
 0.184730	-0.258829	 0.787750	-83.488880	 47.065700	-56.353630	-7.771813	 3.224972	 18.635990	-4.143970	 3.497173	-76.561240	-4.462321	 3.914728	-82.513700	-3.486735	 1.236421	-39.040000	-9.581279	-8.541677	-75.727600	 4.778555	-5.041156	-93.067470	 6.037759	-2.416687	-43.597970	-30.309830	-16.874830	-83.069040	 2.210269	-1.963462	-83.230320	 5.155610	-1.758211	-37.640840	-18.665630	-11.555150	-78.588210	 5.621838	-5.718199	-90.975400	 6.068738	-2.080680	-37.819810	 71.958720	 53.782460	-33.747290	-1.539632	-0.051287	 3.816550	 1.331846	-0.082496	-7.089422
 0.184876	-0.258987	 0.787707	-83.282650	 47.030570	-56.578270	-7.920082	 3.199709	 18.484230	-4.154373	 3.511594	-76.644250	-4.488276	 3.942242	-82.581940	-3.541236	 1.260805	-39.185970	-9.641200	-8.488023	-75.794690	 4.655012	-4.913140	-93.093640	 6.019557	-2.416240	-43.710020	-30.537800	-16.660950	-83.035290	 2.057780	-1.828855	-83.257140	 5.106928	-1.748274	-37.774480	-18.802780	-11.427560	-78.689460	 5.480878	-5.580637	-91.034420	 6.032207	-2.071980	-37.884580	 71.815320	 53.867340	-33.608000	-1.514912	-0.051661	 3.905767	 1.313670	-0.080355	-7.000519
 0.184960	-0.258956	 0.787694	-83.303290	 46.989430	-56.613230	-7.978464	 3.195320	 18.458030	-4.163314	 3.530377	-76.688620	-4.532774	 3.977860	-82.532430	-3.504696	 1.252785	-39.329900	-9.653131	-8.469480	-75.833360	 4.618632	-4.869865	-93.036560	 6.046850	-2.431828	-43.785510	-30.544450	-16.639130	-83.165640	 2.038863	-1.808767	-83.153450	 5.129921	-1.760512	-37.861550	-18.798230	-11.423710	-78.757390	 5.475594	-5.565053	-90.929780	 6.079731	-2.094489	-37.988320	 71.778850	 53.871650	-33.637570	-1.496270	-0.051579	 3.949159	 1.333288	-0.081212	-6.971773
 0.185137	-0.258807	 0.787786	-83.351430	 46.969730	-56.689680	-8.049405	 3.179471	 18.362910	-4.222511	 3.583961	-76.722090	-4.606630	 4.036923	-82.451160	-3.494020	 1.247799	-39.295920	-9.663015	-8.463404	-75.957500	 4.600556	-4.838379	-92.889830	 6.067626	-2.442163	-43.817610	-30.578510	-16.599490	-83.350510	 2.013699	-1.783419	-83.057390	 5.109632	-1.755571	-37.902790	-18.824230	-11.402130	-78.964150	 5.477506	-5.551338	-90.768350	 6.120336	-2.110635	-38.024380	 71.615630	 53.957480	-33.492720	-1.474338	-0.050462	 3.921405	 1.327637	-0.079961	-6.891692
 0.185202	-0.258557	 0.787826	-83.334670	 46.971250	-56.739410	-8.074521	 3.165403	 18.278580	-4.225831	 3.587502	-76.768420	-4.608440	 4.036832	-82.427460	-3.538106	 1.264835	-39.333140	-9.679972	-8.450529	-75.962940	 4.580223	-4.816417	-92.882790	 6.053283	-2.435338	-43.800610	-30.581000	-16.601590	-83.318010	 1.981247	-1.755005	-83.068210	 5.086922	-1.748332	-37.914250	-18.833640	-11.395810	-78.984340	 5.446844	-5.522600	-90.792430	 6.117396	-2.109160	-38.016820	 71.508700	 54.009360	-33.411770	-1.474775	-0.050864	 3.952221	 1.339481	-0.080051	-6.838803
 0.185329	-0.258246	 0.787742	-83.524260	 46.834500	-56.730420	-8.135451	 3.168377	 18.296510	-4.314266	 3.678074	-76.766490	-4.700127	 4.126262	-82.553200	-3.571722	 1.280930	-39.448730	-9.707919	-8.416201	-75.975200	 4.630717	-4.877843	-92.980880	 6.079140	-2.441512	-43.731720	-30.522770	-16.655000	-83.172200	 2.074347	-1.839755	-83.138800	 5.173783	-1.774176	-37.834630	-18.826360	-11.393140	-78.889730	 5.469779	-5.556330	-90.900860	 6.079720	-2.090942	-37.929230	 71.432720	 54.002630	-33.501160	-1.473195	-0.051095	 3.973087	 1.342761	-0.079411	-6.768360
 0.185339	-0.258158	 0.787653	-83.532850	 46.767680	-56.794780	-8.220097	 3.172689	 18.322490	-4.320992	 3.683534	-76.798710	-4.722943	 4.150964	-82.617110	-3.567207	 1.279912	-39.465740	-9.692678	-8.432826	-75.990520	 4.673691	-4.927309	-93.030010	 6.083721	-2.440511	-43.685840	-30.479900	-16.701410	-83.117950	 2.118102	-1.880767	-83.205180	 5.189362	-1.776241	-37.769600	-18.797510	-11.422970	-78.877650	 5.503205	-5.597315	-90.972880	 6.054404	-2.078653	-37.868950	 71.454830	 53.988250	-33.511750	-1.469862	-0.051033	 3.976526	 1.341218	-0.079922	-6.821675
 0.185528	-0.258334	 0.787537	-83.552600	 46.633030	-56.997350	-8.390242	 3.184004	 18.390450	-4.320104	 3.687630	-76.864230	-4.775298	 4.201112	-82.673030	-3.571750	 1.285262	-39.571290	-9.650935	-8.469542	-76.054060	 4.687130	-4.936641	-92.973790	 6.119008	-2.458320	-43.744170	-30.399680	-16.782290	-83.027370	 2.214890	-1.968057	-83.244670	 5.240024	-1.790742	-37.713650	-18.736330	-11.480010	-78.887290	 5.517190	-5.607701	-90.933850	 6.048704	-2.076907	-37.872180	 71.508040	 53.960530	-33.562150	-1.461633	-0.050928	 3.990335	 1.317437	-0.078624	-6.830663
 0.185649	-0.258385	 0.787636	-83.609950	 46.570370	-57.060160	-8.435658	 3.192343	 18.440360	-4.328792	 3.698578	-76.906770	-4.813542	 4.236282	-82.693200	-3.596773	 1.295405	-39.603450	-9.652397	-8.468069	-76.093340	 4.665679	-4.913229	-92.964100	 6.101831	-2.450741	-43.733380	-30.378150	-16.799960	-83.068860	 2.256828	-2.004935	-83.233890	 5.237439	-1.789337	-37.703270	-18.728230	-11.487280	-78.961470	 5.515366	-5.602998	-90.904660	 6.033039	-2.072839	-37.894800	 71.525090	 53.941890	-33.601940	-1.439300	-0.050053	 3.982710	 1.324705	-0.078851	-6.814444
 0.185706	-0.258307	 0.787627	-83.864800	 46.335490	-57.082150	-8.607627	 3.223276	 18.626120	-4.413745	 3.789261	-76.985190	-4.862616	 4.285590	-82.774310	-3.770541	 1.361353	-39.693850	-9.659064	-8.454984	-76.190660	 4.620486	-4.864805	-92.954480	 6.024410	-2.418470	-43.714790	-30.299770	-16.853510	-83.332570	 2.451004	-2.173040	-83.120550	 5.312711	-1.810243	-37.610310	-18.657720	-11.546490	-79.101340	 5.612877	-5.693839	-90.822520	 6.042221	-2.075380	-37.884380	 71.610000	 53.862920	-33.781820	-1.420544	-0.049788	 4.014661	 1.319265	-0.078481	-6.806991
 0.185854	-0.258212	 0.787579	-83.899160	 46.286920	-57.123140	-8.652763	 3.216714	 18.586480	-4.396894	 3.766468	-77.018710	-4.925797	 4.340072	-82.758590	-3.802750	 1.374011	-39.720390	-9.641429	-8.479997	-76.295730	 4.612462	-4.848101	-92.856860	 6.021847	-2.423619	-43.815890	-30.209090	-16.942670	-83.494000	 2.534361	-2.243035	-83.021290	 5.394765	-1.837051	-37.587600	-18.611820	-11.599950	-79.199520	 5.627496	-5.698100	-90.715840	 6.079109	-2.093375	-37.973670	 71.555330	 53.878190	-33.764040	-1.413943	-0.049727	 4.027909	 1.314994	-0.078485	-6.832070
 0.186032	-0.257909	 0.787684	-84.002530	 46.181990	-57.103740	-8.672310	 3.219893	 18.605430	-4.396215	 3.767295	-77.090620	-4.928833	 4.343485	-82.767710	-3.935214	 1.421310	-39.704780	-9.634673	-8.489532	-76.315030	 4.657065	-4.899695	-92.911910	 6.022853	-2.421527	-43.775340	-30.005960	-17.134670	-83.603630	 2.629539	-2.323536	-82.927280	 5.458962	-1.853921	-37.492990	-18.531010	-11.679690	-79.304840	 5.744830	-5.821177	-90.757850	 6.112228	-2.102675	-37.938190	 71.558410	 53.832700	-33.877820	-1.403488	-0.049747	 4.059299	 1.324289	-0.079236	-6.849047
 0.186168	-0.257822	 0.787739	-84.012050	 46.148000	-57.126410	-8.692420	 3.214535	 18.573290	-4.371480	 3.742853	-77.080440	-4.932196	 4.346544	-82.768850	-3.942900	 1.424883	-39.725340	-9.613628	-8.509389	-76.293700	 4.668369	-4.912380	-92.921330	 6.033468	-2.425756	-43.774480	-29.937140	-17.201910	-83.599380	 2.647955	-2.338056	-82.884990	 5.489508	-1.864830	-37.502420	-18.493780	-11.715790	-79.282780	 5.747471	-5.825222	-90.771280	 6.137767	-2.112569	-37.956330	 71.552130	 53.823640	-33.908760	-1.387616	-0.048940	 4.038240	 1.314628	-0.078725	-6.855308
 0.186231	-0.257836	 0.787855	-84.088420	 46.035460	-57.126400	-8.725464	 3.212392	 18.560420	-4.342963	 3.721358	-77.125490	-4.936431	 4.353481	-82.810810	-3.945498	 1.427225	-39.761010	-9.593204	-8.525942	-76.240260	 4.654209	-4.898799	-92.936650	 6.006240	-2.414889	-43.776060	-29.834400	-17.291060	-83.760770	 2.716316	-2.394886	-82.801380	 5.527912	-1.875520	-37.458480	-18.417480	-11.785660	-79.265210	 5.811896	-5.891832	-90.784020	 6.144191	-2.116591	-37.986330	 71.576410	 53.786920	-33.999300	-1.347812	-0.047102	 4.001621	 1.352881	-0.082370	-6.968177
 0.186267	-0.257840	 0.787871	-84.063920	 45.996140	-57.164710	-8.744272	 3.209001	 18.540090	-4.313233	 3.693061	-77.171190	-4.947869	 4.366820	-82.853260	-3.944571	 1.431091	-39.868810	-9.589526	-8.532990	-76.235890	 4.645805	-4.890438	-92.942440	 6.007209	-2.415917	-43.786430	-29.816800	-17.310110	-83.798620	 2.717030	-2.394005	-82.764820	 5.546089	-1.882912	-37.480870	-18.399590	-11.806240	-79.259500	 5.819325	-5.897749	-90.768350	 6.161342	-2.124435	-38.018450	 71.577150	 53.787740	-33.984910	-1.332798	-0.046169	 3.966860	 1.359831	-0.083217	-7.003875
 0.186262	-0.257796	 0.787720	-84.011370	 45.908960	-57.227860	-8.848232	 3.189038	 18.420200	-4.204677	 3.606940	-77.357590	-4.936747	 4.364718	-82.953670	-3.758058	 1.377253	-40.240710	-9.558027	-8.558561	-76.233380	 4.652792	-4.896010	-92.921530	 6.065272	-2.443928	-43.861710	-29.807300	-17.311820	-83.919750	 2.710273	-2.383415	-82.654480	 5.587322	-1.905727	-37.642220	-18.353270	-11.847750	-79.310060	 5.881256	-5.954900	-90.714450	 6.246655	-2.161507	-38.143000	 71.581180	 53.802560	-33.950530	-1.277303	-0.043003	 3.857581	 1.385289	-0.085262	-7.042435
 0.186304	-0.257760	 0.787624	-83.928030	 45.924690	-57.287570	-8.904735	 3.177513	 18.351060	-4.149299	 3.553987	-77.414160	-4.915892	 4.350441	-83.008320	-3.712142	 1.364173	-40.343890	-9.542751	-8.577358	-76.198000	 4.700546	-4.949722	-92.961660	 6.106378	-2.460404	-43.859840	-29.790600	-17.335460	-83.857270	 2.684137	-2.362983	-82.715810	 5.572545	-1.902003	-37.666850	-18.337860	-11.867060	-79.287230	 5.914810	-5.991601	-90.740370	 6.250812	-2.163437	-38.150980	 71.542630	 53.827300	-33.887840	-1.243786	-0.040892	 3.764979	 1.390314	-0.085397	-7.029970
 0.186258	-0.257759	 0.787303	-83.769660	 45.946600	-57.380750	-9.011413	 3.148306	 18.176160	-4.074609	 3.495504	-77.620690	-4.872881	 4.312234	-83.006550	-3.721480	 1.376796	-40.593090	-9.527454	-8.592555	-76.110000	 4.730594	-4.983839	-92.990180	 6.150431	-2.481543	-43.913740	-29.774500	-17.353290	-83.843930	 2.612452	-2.304240	-82.823970	 5.505050	-1.883657	-37.754570	-18.305770	-11.898620	-79.234040	 5.959838	-6.043150	-90.796910	 6.255002	-2.167804	-38.198760	 71.417210	 53.877260	-33.829920	-1.181133	-0.037326	 3.619020	 1.390849	-0.085364	-7.024334
 0.186208	-0.257769	 0.787124	-83.688310	 45.961330	-57.435910	-9.063389	 3.134513	 18.093580	-4.039070	 3.457097	-77.563240	-4.816628	 4.268291	-83.084730	-3.642239	 1.346447	-40.565130	-9.526105	-8.595428	-76.062540	 4.746335	-5.000392	-92.989910	 6.191602	-2.499425	-43.933310	-29.751600	-17.377660	-83.830060	 2.605218	-2.299453	-82.863110	 5.499935	-1.884011	-37.793870	-18.292880	-11.912250	-79.200050	 5.991169	-6.075384	-90.801330	 6.284209	-2.178351	-38.205150	 71.453090	 53.852470	-33.871610	-1.112006	-0.034647	 3.570457	 1.398420	-0.085618	-7.007310
